<svg version="1.1" viewBox="0.0 0.0 960.0 720.0" fill="none" stroke="none" stroke-linecap="square" stroke-miterlimit="10" xmlns:xlink="http://www.w3.org/1999/xlink" xmlns="http://www.w3.org/2000/svg"><clipPath id="p.0"><path d="m0 0l960.0 0l0 720.0l-960.0 0l0 -720.0z" clip-rule="nonzero"/></clipPath><g clip-path="url(#p.0)"><path fill="#000000" fill-opacity="0.0" d="m0 0l960.0 0l0 720.0l-960.0 0z" fill-rule="evenodd"/><path fill="#666666" d="m188.0315 296.90552l-0.54855347 20.485565l0.82151794 18.981628l-0.9580078 24.309692l0.13648987 17.892395l3.1968536 24.7323l10.598419 36.724396l5.0131226 12.973755l18.614182 21.031494l15.18634 10.514435l10.104996 5.3280945l41.443558 15.690277l41.013123 15.873993l42.677185 14.832031l69.47244 23.15747l30.18634 8.587952l36.6929 0.52233887l44.758514 -9.887146l21.4646 -12.359619l12.881897 -17.955383l7.286072 -27.19159l0 -76.63516l-4.682434 -24.073486l-9.629883 -19.385834l-10.275635 -10.40683l-21.07611 -14.443573l-20.039368 -4.6824036l-25.188965 -3.643036l-67.787384 -12.750671l-62.194244 -15.225708l-28.62204 -4.8136597l-37.601044 -12.748016l-41.50656 -16.78479l-27.713913 -12.490814l-15.480316 -7.026245l-11.451447 4.9448853l-14.832016 10.409454l-11.706039 8.976379z" fill-rule="evenodd"/><path stroke="#666666" stroke-width="1.0" stroke-linejoin="round" stroke-linecap="butt" d="m188.0315 296.90552l-0.54855347 20.485565l0.82151794 18.981628l-0.9580078 24.309692l0.13648987 17.892395l3.1968536 24.7323l10.598419 36.724396l5.0131226 12.973755l18.614182 21.031494l15.18634 10.514435l10.104996 5.3280945l41.443558 15.690277l41.013123 15.873993l42.677185 14.832031l69.47244 23.15747l30.18634 8.587952l36.6929 0.52233887l44.758514 -9.887146l21.4646 -12.359619l12.881897 -17.955383l7.286072 -27.19159l0 -76.63516l-4.682434 -24.073486l-9.629883 -19.385834l-10.275635 -10.40683l-21.07611 -14.443573l-20.039368 -4.6824036l-25.188965 -3.643036l-67.787384 -12.750671l-62.194244 -15.225708l-28.62204 -4.8136597l-37.601044 -12.748016l-41.50656 -16.78479l-27.713913 -12.490814l-15.480316 -7.026245l-11.451447 4.9448853l-14.832016 10.409454l-11.706039 8.976379z" fill-rule="evenodd"/><path fill="#000000" d="m548.91266 449.86688l0.77770996 -3.2496338l1.6942139 -0.65270996l3.3839111 -0.51846313l1.9488525 0.77767944l2.7312012 1.9534912l0 4.8143005" fill-rule="evenodd"/><path stroke="#000000" stroke-width="1.0" stroke-linejoin="round" stroke-linecap="butt" d="m548.91266 449.86688l0.77770996 -3.2496338l1.6942139 -0.65270996l3.3839111 -0.51846313l1.9488525 0.77767944l2.7312012 1.9534912l0 4.8143005" fill-rule="evenodd"/><path fill="#000000" d="m511.9507 568.56323l11.355255 -11.244141l10.582214 -28.77008l1.9859009 -17.197235l-1.8748169 -38.690308l-0.7730713 -45.30533l-4.8466797 -23.1503l-5.4022217 -15.428894l-8.707397 -11.795044l-10.475708 -7.7167664l-15.540009 -6.0641785l-27.228577 -7.605652l-18.076752 -4.41156l-61.974854 -15.762207l-39.45874 -11.683929l-13.915192 -4.9578247l-44.198944 -16.757446l-31.417938 -10.248901l-40.236435 -11.906128l-5.619766 -2.7589722" fill-rule="evenodd"/><path stroke="#000000" stroke-width="1.0" stroke-linejoin="round" stroke-linecap="butt" d="m511.9507 568.56323l11.355255 -11.244141l10.582214 -28.77008l1.9859009 -17.197235l-1.8748169 -38.690308l-0.7730713 -45.30533l-4.8466797 -23.1503l-5.4022217 -15.428894l-8.707397 -11.795044l-10.475708 -7.7167664l-15.540009 -6.0641785l-27.228577 -7.605652l-18.076752 -4.41156l-61.974854 -15.762207l-39.45874 -11.683929l-13.915192 -4.9578247l-44.198944 -16.757446l-31.417938 -10.248901l-40.236435 -11.906128l-5.619766 -2.7589722" fill-rule="evenodd"/><path fill="#262626" d="m206.98688 277.1286l-19.446198 13.422577l-1.0419922 11.454071l-0.52230835 59.32547l0.52230835 20.816254l4.1601105 26.026245l7.81102 23.937012l4.6797943 18.740173l24.459305 27.580048l29.147003 15.094482l120.74014 44.75589l96.595795 29.144348l39.63257 0.5984497l10.10498 -9.559082l11.149597 -27.472412l3.1259766 -31.745422l-2.0839844 -65.572174l-8.328064 -41.637787l-15.089233 -18.212585l-29.664062 -14.572174l-134.74017 -33.503967l-54.900238 -21.031494l-47.16011 -14.682404z" fill-rule="evenodd"/><path stroke="#262626" stroke-width="1.0" stroke-linejoin="round" stroke-linecap="butt" d="m206.98688 277.1286l-19.446198 13.422577l-1.0419922 11.454071l-0.52230835 59.32547l0.52230835 20.816254l4.1601105 26.026245l7.81102 23.937012l4.6797943 18.740173l24.459305 27.580048l29.147003 15.094482l120.74014 44.75589l96.595795 29.144348l39.63257 0.5984497l10.10498 -9.559082l11.149597 -27.472412l3.1259766 -31.745422l-2.0839844 -65.572174l-8.328064 -41.637787l-15.089233 -18.212585l-29.664062 -14.572174l-134.74017 -33.503967l-54.900238 -21.031494l-47.16011 -14.682404z" fill-rule="evenodd"/><path fill="#000000" d="m548.91266 448.30698l-0.26385498 48.52722l2.0830688 2.7358093l3.6431274 1.041565l3.6431274 -2.212738l1.4304199 -3.6431274l0 -45.67102l-0.38885498 -1.3007812" fill-rule="evenodd"/><path stroke="#000000" stroke-width="1.0" stroke-linejoin="round" stroke-linecap="butt" d="m548.91266 448.30698l-0.26385498 48.52722l2.0830688 2.7358093l3.6431274 1.041565l3.6431274 -2.212738l1.4304199 -3.6431274l0 -45.67102l-0.38885498 -1.3007812" fill-rule="evenodd"/><path fill="#f3f3f3" d="m229.98346 263.85303l-3.27742 1.9118347l43.162033 19.396057l51.346375 20.75705l28.89505 9.012909l31.96878 5.18927l37.556183 9.698029l31.538269 6.8279724l31.029083 6.2817383l21.581024 3.4162903l44.51837 8.059326l7.6519775 3.684784l7.647339 4.643036l10.795105 7.9204407l11.545105 13.989258l6.064148 11.27655l3.5458984 12.290344l1.8099976 10.6285095l1.4813232 36.486816l-0.4119873 9.429565l0.4119873 32.228027l-2.055359 12.285706l-3.4070435 12.711609l-6.976074 13.651306l-8.32782 11.609863l25.29358 -12.605103l20.687622 -13.007874l30.32544 -19.257202l17.317627 -18.738739l8.244446 -8.716644l6.7631836 -26.413849l1.3100586 -26.251831l1.0878296 -29.223694l-1.4998169 -23.627106l0.81933594 -11.475616l0.4953003 -4.6569214l-1.9488525 -9.105499l-11.707092 -11.716339l-11.193237 -8.188934l-9.100891 -3.518158l-12.753235 -4.5504456l-16.396423 -2.4719543l-19.122925 -1.5646362l-21.215332 -0.26385498l-38.43567 -1.8146362l-35.26013 -5.2077637l-30.445831 -4.036621l-31.616974 -3.7727356l-11.623749 1.0462036l-10.022064 -1.3054199l-4.6846924 -3.3839111l-3.5042725 0.26385498l-0.78692627 1.4304199l1.5507507 0.6480713l5.2124023 3.6431274l2.212738 0.25924683l0.52770996 1.698883l-2.9996948 2.2127075l-4.8143005 0.125l-10.929382 -2.6015625l-10.9339905 -2.212738l-14.049438 -3.6431274l-13.530945 -3.9023743l-0.25924683 -3.9069824l6.115082 -2.8608093l6.3835754 -1.3007812l12.873627 0.7823181l7.934326 0.77770996l-4.93927 -2.6015625l-19.257202 -4.943939l-13.007874 -5.855835" fill-rule="evenodd"/><path stroke="#f3f3f3" stroke-width="1.0" stroke-linejoin="round" stroke-linecap="butt" d="m229.98346 263.85303l-3.27742 1.9118347l43.162033 19.396057l51.346375 20.75705l28.89505 9.012909l31.96878 5.18927l37.556183 9.698029l31.538269 6.8279724l31.029083 6.2817383l21.581024 3.4162903l44.51837 8.059326l7.6519775 3.684784l7.647339 4.643036l10.795105 7.9204407l11.545105 13.989258l6.064148 11.27655l3.5458984 12.290344l1.8099976 10.6285095l1.4813232 36.486816l-0.4119873 9.429565l0.4119873 32.228027l-2.055359 12.285706l-3.4070435 12.711609l-6.976074 13.651306l-8.32782 11.609863l25.29358 -12.605103l20.687622 -13.007874l30.32544 -19.257202l17.317627 -18.738739l8.244446 -8.716644l6.7631836 -26.413849l1.3100586 -26.251831l1.0878296 -29.223694l-1.4998169 -23.627106l0.81933594 -11.475616l0.4953003 -4.6569214l-1.9488525 -9.105499l-11.707092 -11.716339l-11.193237 -8.188934l-9.100891 -3.518158l-12.753235 -4.5504456l-16.396423 -2.4719543l-19.122925 -1.5646362l-21.215332 -0.26385498l-38.43567 -1.8146362l-35.26013 -5.2077637l-30.445831 -4.036621l-31.616974 -3.7727356l-11.623749 1.0462036l-10.022064 -1.3054199l-4.6846924 -3.3839111l-3.5042725 0.26385498l-0.78692627 1.4304199l1.5507507 0.6480713l5.2124023 3.6431274l2.212738 0.25924683l0.52770996 1.698883l-2.9996948 2.2127075l-4.8143005 0.125l-10.929382 -2.6015625l-10.9339905 -2.212738l-14.049438 -3.6431274l-13.530945 -3.9023743l-0.25924683 -3.9069824l6.115082 -2.8608093l6.3835754 -1.3007812l12.873627 0.7823181l7.934326 0.77770996l-4.93927 -2.6015625l-19.257202 -4.943939l-13.007874 -5.855835" fill-rule="evenodd"/><path fill="#f3f3f3" d="m367.70813 272.46362l-8.869415 -8.716675l-11.702454 -9.369354l-7.4251404 -12.919922l-1.8331299 -4.772629l-23.914093 0.9119415l-24.039093 7.152008l-41.01877 9.239746l-19.919159 11.114563" fill-rule="evenodd"/><path stroke="#f3f3f3" stroke-width="1.0" stroke-linejoin="round" stroke-linecap="butt" d="m367.70813 272.46362l-8.869415 -8.716675l-11.702454 -9.369354l-7.4251404 -12.919922l-1.8331299 -4.772629l-23.914093 0.9119415l-24.039093 7.152008l-41.01877 9.239746l-19.919159 11.114563" fill-rule="evenodd"/><path fill="#141414" d="m654.69293 502.58005l34.561646 -19.682404l25.136475 -24.690308l8.375366 -32.632538l0.78479004 -18.047241l-31.847778 34.824158l-5.091858 5.711273l-5.7296753 26.897644l-8.818909 9.700775z" fill-rule="evenodd"/><path stroke="#141414" stroke-width="1.0" stroke-linejoin="round" stroke-linecap="butt" d="m654.69293 502.58005l34.561646 -19.682404l25.136475 -24.690308l8.375366 -32.632538l0.78479004 -18.047241l-31.847778 34.824158l-5.091858 5.711273l-5.7296753 26.897644l-8.818909 9.700775z" fill-rule="evenodd"/><path fill="#737373" d="m469.10236 168.7664l-98.50394 57.286087l7.648285 7.9212646l40.4252 19.664047l36.874023 6.7742767l45.30185 -31.795288l52.04724 -21.338577l68.17847 -26.020996z" fill-rule="evenodd"/><path stroke="#737373" stroke-width="1.0" stroke-linejoin="round" stroke-linecap="butt" d="m469.10236 168.7664l-98.50394 57.286087l7.648285 7.9212646l40.4252 19.664047l36.874023 6.7742767l45.30185 -31.795288l52.04724 -21.338577l68.17847 -26.020996z" fill-rule="evenodd"/><path fill="#666666" d="m821.719 204.65237l-41.6344 -22.377228l-41.115967 -8.850906l-77.54266 0l-39.032837 7.286255l-87.95355 -5.7216034l-66.09476 -5.207779l84.82889 -34.86664l62.97473 -18.7341l85.35193 -10.410919l47.87915 1.0415497l-4.16156 -11.97094l-4.16626 -14.57251l10.41095 -5.726242l21.335693 5.726242l27.06189 9.3693695l3.1246338 11.97094l-7.8046875 8.323181" fill-rule="evenodd"/><path stroke="#666666" stroke-width="1.0" stroke-linejoin="round" stroke-linecap="butt" d="m821.719 204.65237l-41.6344 -22.377228l-41.115967 -8.850906l-77.54266 0l-39.032837 7.286255l-87.95355 -5.7216034l-66.09476 -5.207779l84.82889 -34.86664l62.97473 -18.7341l85.35193 -10.410919l47.87915 1.0415497l-4.16156 -11.97094l-4.16626 -14.57251l10.41095 -5.726242l21.335693 5.726242l27.06189 9.3693695l3.1246338 11.97094l-7.8046875 8.323181" fill-rule="evenodd"/><path fill="#666666" d="m795.1802 110.45414l23.418762 18.215645l15.609436 10.4062805l-2.6015625 35.38974" fill-rule="evenodd"/><path stroke="#666666" stroke-width="1.0" stroke-linejoin="round" stroke-linecap="butt" d="m795.1802 110.45414l23.418762 18.215645l15.609436 10.4062805l-2.6015625 35.38974" fill-rule="evenodd"/><path fill="#666666" d="m833.68994 172.38731l-11.970947 31.746597l-5.203125 -2.6062012" fill-rule="evenodd"/><path stroke="#666666" stroke-width="1.0" stroke-linejoin="round" stroke-linecap="butt" d="m833.68994 172.38731l-11.970947 31.746597l-5.203125 -2.6062012" fill-rule="evenodd"/><path fill="#666666" d="m792.574 103.68634l40.0744 72.3441l-13.007874 21.335678l-18.738708 -13.012497z" fill-rule="evenodd"/><path stroke="#666666" stroke-width="1.0" stroke-linejoin="round" stroke-linecap="butt" d="m792.574 103.68634l40.0744 72.3441l-13.007874 21.335678l-18.738708 -13.012497z" fill-rule="evenodd"/><path fill="#b7b7b7" d="m708.9999 318.53192l-9.04071 0.21759033l-5.4022217 0.77767944l0.8842163 27.441498z" fill-rule="evenodd"/><path stroke="#b7b7b7" stroke-width="1.0" stroke-linejoin="round" stroke-linecap="butt" d="m708.9999 318.53192l-9.04071 0.21759033l-5.4022217 0.77767944l0.8842163 27.441498z" fill-rule="evenodd"/><path fill="#b7b7b7" d="m697.85474 329.03726l48.397583 -42.675995l71.30255 -70.26099l14.595703 -40.03276l2.0552979 -36.99141l8.32782 38.514404l3.1292725 38.509766l-6.7724 47.360657l-18.215637 40.592865l-72.85791 77.02881l-61.414734 66.18735l-0.68048096 -89.592255l1.4998169 -18.544312z" fill-rule="evenodd"/><path stroke="#b7b7b7" stroke-width="1.0" stroke-linejoin="round" stroke-linecap="butt" d="m697.85474 329.03726l48.397583 -42.675995l71.30255 -70.26099l14.595703 -40.03276l2.0552979 -36.99141l8.32782 38.514404l3.1292725 38.509766l-6.7724 47.360657l-18.215637 40.592865l-72.85791 77.02881l-61.414734 66.18735l-0.68048096 -89.592255l1.4998169 -18.544312z" fill-rule="evenodd"/><path fill="#b7b7b7" d="m686.9927 357.8443l7.545471 -38.384766l2.3423462 38.255157z" fill-rule="evenodd"/><path stroke="#b7b7b7" stroke-width="1.0" stroke-linejoin="round" stroke-linecap="butt" d="m686.9927 357.8443l7.545471 -38.384766l2.3423462 38.255157z" fill-rule="evenodd"/><path fill="#141414" d="m336.5092 234.76378l9.961884 18.442474l16.396393 15.160416l11.697845 6.818695l20.669067 4.9161377l11.068268 4.7819214l-5.055023 0.13885498l-10.934021 -1.0971069l-10.929382 0.40737915l-9.286041 3.4116516l3.5829468 5.0735474l49.818756 9.698029" fill-rule="evenodd"/><path stroke="#141414" stroke-width="1.0" stroke-linejoin="round" stroke-linecap="butt" d="m336.5092 234.76378l9.961884 18.442474l16.396393 15.160416l11.697845 6.818695l20.669067 4.9161377l11.068268 4.7819214l-5.055023 0.13885498l-10.934021 -1.0971069l-10.929382 0.40737915l-9.286041 3.4116516l3.5829468 5.0735474l49.818756 9.698029" fill-rule="evenodd"/><path fill="#141414" d="m421.8648 301.95828l5.615143 -1.6387024l-7.388092 -3.550537" fill-rule="evenodd"/><path stroke="#141414" stroke-width="1.0" stroke-linejoin="round" stroke-linecap="butt" d="m421.8648 301.95828l5.615143 -1.6387024l-7.388092 -3.550537" fill-rule="evenodd"/><path fill="#141414" d="m419.95108 296.6326l-0.8100891 -3.4163208l4.5087585 -0.40734863l6.4067383 4.3699036l27.034119 -0.050933838l56.36435 7.1566467l45.42566 6.6150513l62.058228 1.5183411l18.729431 3.2774353l30.459717 12.290344l12.9939575 13.165253l5.4624023 7.647339l7.795471 -25.534302l9.822998 -5.3281555l-4.022705 -7.4760437l-13.239319 -11.021973l-31.737366 -11.906128l-67.90015 -10.142426l-72.32092 -6.170624l-50.70291 -8.818512l-39.685577 -6.615036l-50.258484 -22.488327l-6.5594788 -6.6983643l-10.637756 0.9674988l-7.1103516 2.0368195l-7.878784 2.3701172l-11.327484 4.8420715" fill-rule="evenodd"/><path stroke="#141414" stroke-width="1.0" stroke-linejoin="round" stroke-linecap="butt" d="m419.95108 296.6326l-0.8100891 -3.4163208l4.5087585 -0.40734863l6.4067383 4.3699036l27.034119 -0.050933838l56.36435 7.1566467l45.42566 6.6150513l62.058228 1.5183411l18.729431 3.2774353l30.459717 12.290344l12.9939575 13.165253l5.4624023 7.647339l7.795471 -25.534302l9.822998 -5.3281555l-4.022705 -7.4760437l-13.239319 -11.021973l-31.737366 -11.906128l-67.90015 -10.142426l-72.32092 -6.170624l-50.70291 -8.818512l-39.685577 -6.615036l-50.258484 -22.488327l-6.5594788 -6.6983643l-10.637756 0.9674988l-7.1103516 2.0368195l-7.878784 2.3701172l-11.327484 4.8420715" fill-rule="evenodd"/><path fill="#141414" d="m362.13385 253.22572l29.98291 27.779434l27.918304 20.432983l4.1523438 -1.8007202l-25.015839 -22.599426z" fill-rule="evenodd"/><path stroke="#141414" stroke-width="1.0" stroke-linejoin="round" stroke-linecap="butt" d="m362.13385 253.22572l29.98291 27.779434l27.918304 20.432983l4.1523438 -1.8007202l-25.015839 -22.599426z" fill-rule="evenodd"/><path fill="#141414" d="m361.5853 256.64304l0 0c0 -4.8270416 6.35968 -8.740143 14.204742 -8.740143l0 0c7.8450317 0 14.204712 3.9131012 14.204712 8.740143l0 0c0 4.827057 -6.35968 8.740173 -14.204712 8.740173l0 0c-7.8450623 0 -14.204742 -3.9131165 -14.204742 -8.740173z" fill-rule="evenodd"/><path stroke="#141414" stroke-width="1.0" stroke-linejoin="round" stroke-linecap="butt" d="m361.5853 256.64304l0 0c0 -4.8270416 6.35968 -8.740143 14.204742 -8.740143l0 0c7.8450317 0 14.204712 3.9131012 14.204712 8.740143l0 0c0 4.827057 -6.35968 8.740173 -14.204712 8.740173l0 0c-7.8450623 0 -14.204742 -3.9131165 -14.204742 -8.740173z" fill-rule="evenodd"/><path fill="#141414" d="m426.78217 299.63516l1.230957 1.3674622l-2.7322693 2.0472412l-6.147003 0l-24.855621 -6.0078735" fill-rule="evenodd"/><path stroke="#141414" stroke-width="1.0" stroke-linejoin="round" stroke-linecap="butt" d="m426.78217 299.63516l1.230957 1.3674622l-2.7322693 2.0472412l-6.147003 0l-24.855621 -6.0078735" fill-rule="evenodd"/><path fill="#000000" fill-opacity="0.0" d="m227.44882 265.10236l70.39371 10.173248" fill-rule="evenodd"/><path stroke="#f3f3f3" stroke-width="1.0" stroke-linejoin="round" stroke-linecap="butt" d="m227.44882 265.10236l70.39371 10.173248" fill-rule="evenodd"/></g></svg>